<svg xmlns="http://www.w3.org/2000/svg" viewBox="0 0 500 360" role="img">
<defs>
<linearGradient id="gBody" x1="0" y1="0" x2="0" y2="1"><stop offset="0%" stop-color="#FBF9F3"/><stop offset="18%" stop-color="#E9E4D8"/><stop offset="55%" stop-color="#C9C2B2"/><stop offset="100%" stop-color="#9C9484"/></linearGradient>
<linearGradient id="gGlass" x1="0" y1="0" x2="0" y2="1"><stop offset="0%" stop-color="#55585F"/><stop offset="100%" stop-color="#7B7F88"/></linearGradient>
<radialGradient id="gTire" cx="0.5" cy="0.5" r="0.5"><stop offset="0%" stop-color="#4A4E55"/><stop offset="75%" stop-color="#2D3036"/><stop offset="100%" stop-color="#202227"/></radialGradient>
<radialGradient id="gRim" cx="0.5" cy="0.5" r="0.5"><stop offset="0%" stop-color="#F3F2EC"/><stop offset="70%" stop-color="#C6C1B4"/><stop offset="100%" stop-color="#A39C8D"/></radialGradient>
<radialGradient id="gGround" cx="0.5" cy="0.5" r="0.5"><stop offset="0%" stop-color="#8A8478" stop-opacity="0.34"/><stop offset="100%" stop-color="#8A8478" stop-opacity="0"/></radialGradient>
</defs>
<rect x="0" y="0" width="500" height="360" fill="#F1E9DB"/>
<path d="M156 150 L344 150 Q372 150 372 172 L372 252 L128 252 L128 172 Q128 150 156 150 Z" fill="url(#gBody)" stroke="#565A63" stroke-width="1.4"/>
<line x1="50" y1="300" x2="450" y2="300" stroke="#6C707A" stroke-width="1.8" stroke-linecap="round" stroke-linejoin="round"/>
<path d="M156 150 L344 150 Q372 150 372 172 L372 252 L128 252 L128 172 Q128 150 156 150 Z" fill="url(#gBody)" stroke="#565A63" stroke-width="1.4"/>
<line x1="50" y1="300" x2="450" y2="300" stroke="#6C707A" stroke-width="1.8" stroke-linecap="round" stroke-linejoin="round"/>
<circle cx="178" cy="196" r="13" fill="url(#gGlass)" stroke="#4A4D55" stroke-width="1.0"/>
<circle cx="322" cy="196" r="13" fill="url(#gGlass)" stroke="#4A4D55" stroke-width="1.0"/>
<path d="M156 150 L344 150 Q372 150 372 172 L372 252 L128 252 L128 172 Q128 150 156 150 Z" fill="url(#gBody)" stroke="#565A63" stroke-width="1.4"/>
<line x1="50" y1="300" x2="450" y2="300" stroke="#6C707A" stroke-width="1.8" stroke-linecap="round" stroke-linejoin="round"/>
<circle cx="178" cy="196" r="13" fill="url(#gGlass)" stroke="#4A4D55" stroke-width="1.0"/>
<circle cx="322" cy="196" r="13" fill="url(#gGlass)" stroke="#4A4D55" stroke-width="1.0"/>
<line x1="156" y1="214" x2="344" y2="214" stroke="#6C707A" stroke-width="1.7" stroke-linecap="round" stroke-linejoin="round"/>
<path d="M156 222 L344 222 L344 252 L156 252 Z" fill="#8B8478" opacity="0.5" stroke="#565A63" stroke-width="1.0"/>
<path d="M174 118 L326 118 Q352 118 352 140 L352 208 L148 208 L148 140 Q148 118 174 118 Z" fill="url(#gBody)" stroke="#565A63" stroke-width="1.4"/>
<line x1="50" y1="238" x2="450" y2="238" stroke="#6C707A" stroke-width="1.8" stroke-linecap="round" stroke-linejoin="round"/>
<line x1="162" y1="164" x2="338" y2="164" stroke="#6C707A" stroke-width="1.7" stroke-linecap="round" stroke-linejoin="round"/>
</svg>
