<svg xmlns="http://www.w3.org/2000/svg" viewBox="0 0 500 360" role="img">
<defs>
<linearGradient id="gBody" x1="0" y1="0" x2="0" y2="1"><stop offset="0%" stop-color="#FBF9F3"/><stop offset="18%" stop-color="#E9E4D8"/><stop offset="55%" stop-color="#C9C2B2"/><stop offset="100%" stop-color="#9C9484"/></linearGradient>
<linearGradient id="gGlass" x1="0" y1="0" x2="0" y2="1"><stop offset="0%" stop-color="#55585F"/><stop offset="100%" stop-color="#7B7F88"/></linearGradient>
<radialGradient id="gTire" cx="0.5" cy="0.5" r="0.5"><stop offset="0%" stop-color="#4A4E55"/><stop offset="75%" stop-color="#2D3036"/><stop offset="100%" stop-color="#202227"/></radialGradient>
<radialGradient id="gRim" cx="0.5" cy="0.5" r="0.5"><stop offset="0%" stop-color="#F3F2EC"/><stop offset="70%" stop-color="#C6C1B4"/><stop offset="100%" stop-color="#A39C8D"/></radialGradient>
<radialGradient id="gGround" cx="0.5" cy="0.5" r="0.5"><stop offset="0%" stop-color="#8A8478" stop-opacity="0.34"/><stop offset="100%" stop-color="#8A8478" stop-opacity="0"/></radialGradient>
<radialGradient id="gMetal" cx="0.5" cy="0.36" r="0.66"><stop offset="0%" stop-color="#FDFCF8"/><stop offset="24%" stop-color="#D4CFC2"/><stop offset="48%" stop-color="#8B8478"/><stop offset="66%" stop-color="#3A3C42"/><stop offset="82%" stop-color="#B9B3A6"/><stop offset="100%" stop-color="#6E6A61"/></radialGradient>
<radialGradient id="gMatte" cx="0.5" cy="0.42" r="0.62"><stop offset="0%" stop-color="#EFEDE6"/><stop offset="55%" stop-color="#B9B4A8"/><stop offset="100%" stop-color="#7D786E"/></radialGradient>
<radialGradient id="gGlassBall" cx="0.36" cy="0.32" r="0.7"><stop offset="0%" stop-color="#FBF9F3" stop-opacity="0.2"/><stop offset="55%" stop-color="#7B7F88" stop-opacity="0.1"/><stop offset="100%" stop-color="#3A3C42" stop-opacity="0.38"/></radialGradient>
<linearGradient id="gTonePaper" x1="0" y1="0" x2="0" y2="1"><stop offset="0%" stop-color="#D6D0C2"/><stop offset="100%" stop-color="#BCB5A5"/></linearGradient>
<linearGradient id="gScreen" x1="0" y1="0" x2="0" y2="1"><stop offset="0%" stop-color="#41444C"/><stop offset="100%" stop-color="#22242A"/></linearGradient>
</defs>
<rect x="0" y="0" width="500" height="360" fill="#F1E9DB"/>
<line x1="25" y1="0" x2="25" y2="360" stroke="#B9C8DC" stroke-width="0.5" opacity="0.5"/>
<line x1="50" y1="0" x2="50" y2="360" stroke="#B9C8DC" stroke-width="0.5" opacity="0.5"/>
<line x1="75" y1="0" x2="75" y2="360" stroke="#B9C8DC" stroke-width="0.5" opacity="0.5"/>
<line x1="100" y1="0" x2="100" y2="360" stroke="#B9C8DC" stroke-width="0.5" opacity="0.5"/>
<line x1="125" y1="0" x2="125" y2="360" stroke="#B9C8DC" stroke-width="0.5" opacity="0.5"/>
<line x1="150" y1="0" x2="150" y2="360" stroke="#B9C8DC" stroke-width="0.5" opacity="0.5"/>
<line x1="175" y1="0" x2="175" y2="360" stroke="#B9C8DC" stroke-width="0.5" opacity="0.5"/>
<line x1="200" y1="0" x2="200" y2="360" stroke="#B9C8DC" stroke-width="0.5" opacity="0.5"/>
<line x1="225" y1="0" x2="225" y2="360" stroke="#B9C8DC" stroke-width="0.5" opacity="0.5"/>
<line x1="250" y1="0" x2="250" y2="360" stroke="#B9C8DC" stroke-width="0.5" opacity="0.5"/>
<line x1="275" y1="0" x2="275" y2="360" stroke="#B9C8DC" stroke-width="0.5" opacity="0.5"/>
<line x1="300" y1="0" x2="300" y2="360" stroke="#B9C8DC" stroke-width="0.5" opacity="0.5"/>
<line x1="325" y1="0" x2="325" y2="360" stroke="#B9C8DC" stroke-width="0.5" opacity="0.5"/>
<line x1="350" y1="0" x2="350" y2="360" stroke="#B9C8DC" stroke-width="0.5" opacity="0.5"/>
<line x1="375" y1="0" x2="375" y2="360" stroke="#B9C8DC" stroke-width="0.5" opacity="0.5"/>
<line x1="400" y1="0" x2="400" y2="360" stroke="#B9C8DC" stroke-width="0.5" opacity="0.5"/>
<line x1="425" y1="0" x2="425" y2="360" stroke="#B9C8DC" stroke-width="0.5" opacity="0.5"/>
<line x1="450" y1="0" x2="450" y2="360" stroke="#B9C8DC" stroke-width="0.5" opacity="0.5"/>
<line x1="475" y1="0" x2="475" y2="360" stroke="#B9C8DC" stroke-width="0.5" opacity="0.5"/>
<line x1="0" y1="25" x2="500" y2="25" stroke="#B9C8DC" stroke-width="0.5" opacity="0.5"/>
<line x1="0" y1="50" x2="500" y2="50" stroke="#B9C8DC" stroke-width="0.5" opacity="0.5"/>
<line x1="0" y1="75" x2="500" y2="75" stroke="#B9C8DC" stroke-width="0.5" opacity="0.5"/>
<line x1="0" y1="100" x2="500" y2="100" stroke="#B9C8DC" stroke-width="0.5" opacity="0.5"/>
<line x1="0" y1="125" x2="500" y2="125" stroke="#B9C8DC" stroke-width="0.5" opacity="0.5"/>
<line x1="0" y1="150" x2="500" y2="150" stroke="#B9C8DC" stroke-width="0.5" opacity="0.5"/>
<line x1="0" y1="175" x2="500" y2="175" stroke="#B9C8DC" stroke-width="0.5" opacity="0.5"/>
<line x1="0" y1="200" x2="500" y2="200" stroke="#B9C8DC" stroke-width="0.5" opacity="0.5"/>
<line x1="0" y1="225" x2="500" y2="225" stroke="#B9C8DC" stroke-width="0.5" opacity="0.5"/>
<line x1="0" y1="250" x2="500" y2="250" stroke="#B9C8DC" stroke-width="0.5" opacity="0.5"/>
<line x1="0" y1="275" x2="500" y2="275" stroke="#B9C8DC" stroke-width="0.5" opacity="0.5"/>
<line x1="0" y1="300" x2="500" y2="300" stroke="#B9C8DC" stroke-width="0.5" opacity="0.5"/>
<line x1="0" y1="325" x2="500" y2="325" stroke="#B9C8DC" stroke-width="0.5" opacity="0.5"/>
<line x1="0" y1="350" x2="500" y2="350" stroke="#B9C8DC" stroke-width="0.5" opacity="0.5"/>
<line x1="125" y1="0" x2="125" y2="360" stroke="#9FB2CC" stroke-width="0.9" opacity="0.65"/>
<line x1="250" y1="0" x2="250" y2="360" stroke="#9FB2CC" stroke-width="0.9" opacity="0.65"/>
<line x1="375" y1="0" x2="375" y2="360" stroke="#9FB2CC" stroke-width="0.9" opacity="0.65"/>
<line x1="0" y1="125" x2="500" y2="125" stroke="#9FB2CC" stroke-width="0.9" opacity="0.65"/>
<line x1="0" y1="250" x2="500" y2="250" stroke="#9FB2CC" stroke-width="0.9" opacity="0.65"/>
<line x1="24" y1="329" x2="476" y2="329" stroke="#6B8FC2" stroke-width="1.0" stroke-dasharray="10 7" opacity="0.7"/>
<line x1="60" y1="292" x2="440" y2="292" stroke="#6C707A" stroke-width="1.5" stroke-linecap="round" stroke-linejoin="round"/>
<circle cx="120" cy="180" r="58" stroke="#3A3C42" stroke-width="1.5" stroke-linecap="round" stroke-linejoin="round" fill="none" />
<line x1="104.5" y1="141.3" x2="117.6" y2="150.5" stroke="#555B66" stroke-width="1.3" stroke-linecap="round" stroke-linejoin="round" opacity="0.95"/>
<line x1="98.2" y1="149.3" x2="111.3" y2="158.5" stroke="#555B66" stroke-width="1.3" stroke-linecap="round" stroke-linejoin="round" opacity="0.95"/>
<line x1="94.2" y1="156.0" x2="107.3" y2="165.1" stroke="#555B66" stroke-width="1.3" stroke-linecap="round" stroke-linejoin="round" opacity="0.95"/>
<line x1="88.7" y1="163.8" x2="101.8" y2="173.0" stroke="#555B66" stroke-width="1.3" stroke-linecap="round" stroke-linejoin="round" opacity="0.95"/>
<line x1="83.8" y1="172.2" x2="96.9" y2="181.4" stroke="#555B66" stroke-width="1.3" stroke-linecap="round" stroke-linejoin="round" opacity="0.95"/>
<line x1="78.3" y1="178.4" x2="91.4" y2="187.6" stroke="#555B66" stroke-width="1.3" stroke-linecap="round" stroke-linejoin="round" opacity="0.95"/>
<text x="250" y="60" text-anchor="middle" font-size="20" font-family="'Microsoft YaHei', sans-serif" font-weight="600" fill="#3A3C42">玻璃球：高光留白，画的是环境</text>
<line x1="60" y1="292" x2="440" y2="292" stroke="#6C707A" stroke-width="1.5" stroke-linecap="round" stroke-linejoin="round"/>
<circle cx="120" cy="180" r="58" fill="url(#gGlassBall)"/>
<line x1="104.5" y1="141.3" x2="117.6" y2="150.5" stroke="#555B66" stroke-width="1.3" stroke-linecap="round" stroke-linejoin="round" opacity="0.95"/>
<line x1="98.2" y1="149.3" x2="111.3" y2="158.5" stroke="#555B66" stroke-width="1.3" stroke-linecap="round" stroke-linejoin="round" opacity="0.95"/>
<line x1="94.2" y1="156.0" x2="107.3" y2="165.1" stroke="#555B66" stroke-width="1.3" stroke-linecap="round" stroke-linejoin="round" opacity="0.95"/>
<line x1="88.7" y1="163.8" x2="101.8" y2="173.0" stroke="#555B66" stroke-width="1.3" stroke-linecap="round" stroke-linejoin="round" opacity="0.95"/>
<line x1="83.8" y1="172.2" x2="96.9" y2="181.4" stroke="#555B66" stroke-width="1.3" stroke-linecap="round" stroke-linejoin="round" opacity="0.95"/>
<line x1="78.3" y1="178.4" x2="91.4" y2="187.6" stroke="#555B66" stroke-width="1.3" stroke-linecap="round" stroke-linejoin="round" opacity="0.95"/>
<path d="M84 152 Q120 138 156 152" stroke="#FBF9F3" stroke-width="3.2" stroke-linecap="round" stroke-linejoin="round" fill="none"/>
<path d="M88 210 Q120 226 152 210" stroke="#8B8478" stroke-width="2.2" stroke-linecap="round" stroke-linejoin="round" fill="none"/>
<ellipse cx="120" cy="246" rx="50" ry="7" fill="url(#gGround)"/>
<text x="250" y="60" text-anchor="middle" font-size="20" font-family="'Microsoft YaHei', sans-serif" font-weight="600" fill="#3A3C42">玻璃：透射 + 折射线</text>
<line x1="60" y1="292" x2="440" y2="292" stroke="#6C707A" stroke-width="1.5" stroke-linecap="round" stroke-linejoin="round"/>
<circle cx="120" cy="180" r="58" fill="url(#gGlassBall)"/>
<line x1="104.5" y1="141.3" x2="117.6" y2="150.5" stroke="#555B66" stroke-width="1.3" stroke-linecap="round" stroke-linejoin="round" opacity="0.95"/>
<line x1="98.2" y1="149.3" x2="111.3" y2="158.5" stroke="#555B66" stroke-width="1.3" stroke-linecap="round" stroke-linejoin="round" opacity="0.95"/>
<line x1="94.2" y1="156.0" x2="107.3" y2="165.1" stroke="#555B66" stroke-width="1.3" stroke-linecap="round" stroke-linejoin="round" opacity="0.95"/>
<line x1="88.7" y1="163.8" x2="101.8" y2="173.0" stroke="#555B66" stroke-width="1.3" stroke-linecap="round" stroke-linejoin="round" opacity="0.95"/>
<line x1="83.8" y1="172.2" x2="96.9" y2="181.4" stroke="#555B66" stroke-width="1.3" stroke-linecap="round" stroke-linejoin="round" opacity="0.95"/>
<line x1="78.3" y1="178.4" x2="91.4" y2="187.6" stroke="#555B66" stroke-width="1.3" stroke-linecap="round" stroke-linejoin="round" opacity="0.95"/>
<path d="M84 152 Q120 138 156 152" stroke="#FBF9F3" stroke-width="3.2" stroke-linecap="round" stroke-linejoin="round" fill="none"/>
<path d="M88 210 Q120 226 152 210" stroke="#8B8478" stroke-width="2.2" stroke-linecap="round" stroke-linejoin="round" fill="none"/>
<ellipse cx="120" cy="246" rx="50" ry="7" fill="url(#gGround)"/>
<circle cx="330" cy="180" r="58" fill="url(#gMatte)"/>
<line x1="306.5" y1="157.3" x2="318.0" y2="165.3" stroke="#555B66" stroke-width="1.3" stroke-linecap="round" stroke-linejoin="round" opacity="0.95"/>
<line x1="300.2" y1="165.3" x2="311.7" y2="173.3" stroke="#555B66" stroke-width="1.3" stroke-linecap="round" stroke-linejoin="round" opacity="0.95"/>
<line x1="296.2" y1="172.0" x2="307.6" y2="180.0" stroke="#555B66" stroke-width="1.3" stroke-linecap="round" stroke-linejoin="round" opacity="0.95"/>
<line x1="290.7" y1="179.8" x2="302.2" y2="187.9" stroke="#555B66" stroke-width="1.3" stroke-linecap="round" stroke-linejoin="round" opacity="0.95"/>
<line x1="285.8" y1="188.2" x2="297.3" y2="196.3" stroke="#555B66" stroke-width="1.3" stroke-linecap="round" stroke-linejoin="round" opacity="0.95"/>
<line x1="280.3" y1="194.4" x2="291.8" y2="202.4" stroke="#555B66" stroke-width="1.3" stroke-linecap="round" stroke-linejoin="round" opacity="0.95"/>
<line x1="312.5" y1="169.3" x2="322.3" y2="162.4" stroke="#555B66" stroke-width="1.3" stroke-linecap="round" stroke-linejoin="round" opacity="0.95"/>
<line x1="316.5" y1="177.3" x2="326.4" y2="170.4" stroke="#555B66" stroke-width="1.3" stroke-linecap="round" stroke-linejoin="round" opacity="0.95"/>
<line x1="322.8" y1="184.0" x2="332.6" y2="177.1" stroke="#555B66" stroke-width="1.3" stroke-linecap="round" stroke-linejoin="round" opacity="0.95"/>
<line x1="327.7" y1="191.8" x2="337.5" y2="184.9" stroke="#555B66" stroke-width="1.3" stroke-linecap="round" stroke-linejoin="round" opacity="0.95"/>
<line x1="333.1" y1="200.2" x2="342.9" y2="193.3" stroke="#555B66" stroke-width="1.3" stroke-linecap="round" stroke-linejoin="round" opacity="0.95"/>
<ellipse cx="330" cy="246" rx="50" ry="7" fill="url(#gGround)"/>
<text x="250" y="60" text-anchor="middle" font-size="20" font-family="'Microsoft YaHei', sans-serif" font-weight="600" fill="#3A3C42">塑料：哑光排线，反光柔和</text>
</svg>
