<svg xmlns="http://www.w3.org/2000/svg" viewBox="0 0 500 360" role="img">
<line x1="30" y1="320" x2="470" y2="320" stroke="#2F3542" stroke-width="7" stroke-linecap="round" stroke-linejoin="round" fill="none"/>
<path d="M80 244 L80 190 Q80 142 128 142 L236 142 L290 166 L378 166 Q420 166 420 208 L420 244 Z" stroke="#2F3542" stroke-width="7" stroke-linecap="round" stroke-linejoin="round" fill="#FFF8EC"/>
<line x1="368" y1="196" x2="412" y2="196" stroke="#2F3542" stroke-width="6" stroke-linecap="round" stroke-linejoin="round" fill="none"/>
<line x1="30" y1="320" x2="470" y2="320" stroke="#2F3542" stroke-width="7" stroke-linecap="round" stroke-linejoin="round" fill="none"/>
<path d="M80 244 L80 190 Q80 142 128 142 L236 142 L290 166 L378 166 Q420 166 420 208 L420 244 Z" stroke="#2F3542" stroke-width="7" stroke-linecap="round" stroke-linejoin="round" fill="#FFF8EC"/>
<path d="M368 196 L360 186 M412 196 L420 188" stroke="#2F3542" stroke-width="6" stroke-linecap="round" stroke-linejoin="round" fill="none"/>
<line x1="30" y1="320" x2="470" y2="320" stroke="#2F3542" stroke-width="7" stroke-linecap="round" stroke-linejoin="round" fill="none"/>
<path d="M80 244 L80 190 Q80 142 128 142 L236 142 L290 166 L378 166 Q420 166 420 208 L420 244 Z" stroke="#2F3542" stroke-width="7" stroke-linecap="round" stroke-linejoin="round" fill="#FFF8EC"/>
<path d="M368 196 L360 186 M412 196 L420 188" stroke="#2F3542" stroke-width="6" stroke-linecap="round" stroke-linejoin="round" fill="none"/>
<circle cx="382" cy="190" r="3" stroke="#2F3542" stroke-width="7" stroke-linecap="round" stroke-linejoin="round" fill="#FFFFFF"/>
<circle cx="394" cy="190" r="3" stroke="#2F3542" stroke-width="7" stroke-linecap="round" stroke-linejoin="round" fill="#FFFFFF"/>
<circle cx="406" cy="190" r="3" stroke="#2F3542" stroke-width="7" stroke-linecap="round" stroke-linejoin="round" fill="#FFFFFF"/>
</svg>
