<svg xmlns="http://www.w3.org/2000/svg" viewBox="0 0 500 360" role="img">
<line x1="30" y1="320" x2="470" y2="320" stroke="#2F3542" stroke-width="7" stroke-linecap="round" stroke-linejoin="round" fill="none"/>
<path d="M80 244 L80 190 Q80 142 128 142 L236 142 L290 166 L378 166 Q420 166 420 208 L420 244 Z" stroke="#2F3542" stroke-width="7" stroke-linecap="round" stroke-linejoin="round" fill="#FFF8EC"/>
<circle cx="150" cy="278" r="42" stroke="#2F3542" stroke-width="7" stroke-linecap="round" stroke-linejoin="round" fill="#37474F"/>
<circle cx="150" cy="278" r="27" stroke="#2F3542" stroke-width="7" stroke-linecap="round" stroke-linejoin="round" fill="#FFFFFF"/>
<circle cx="150" cy="278" r="8" stroke="#2F3542" stroke-width="7" stroke-linecap="round" stroke-linejoin="round" fill="#37474F"/>
<circle cx="350" cy="278" r="42" stroke="#2F3542" stroke-width="7" stroke-linecap="round" stroke-linejoin="round" fill="#37474F"/>
<circle cx="350" cy="278" r="27" stroke="#2F3542" stroke-width="7" stroke-linecap="round" stroke-linejoin="round" fill="#FFFFFF"/>
<circle cx="350" cy="278" r="8" stroke="#2F3542" stroke-width="7" stroke-linecap="round" stroke-linejoin="round" fill="#37474F"/>
<path d="M150 152 L222 152 L240 178 L150 178 Z" stroke="#2F3542" stroke-width="7" stroke-linecap="round" stroke-linejoin="round" fill="#BFE3FF"/>
<path d="M262 176 L340 176 L372 200 L262 200 Z" stroke="#2F3542" stroke-width="7" stroke-linecap="round" stroke-linejoin="round" fill="#BFE3FF"/>
<path d="M402 208 Q410 204 420 208 L420 226 Q410 222 402 226 Z" stroke="#2F3542" stroke-width="7" stroke-linecap="round" stroke-linejoin="round" fill="#FFD23F"/>
<rect x="84" y="196" width="14" height="22" rx="7" stroke="#2F3542" stroke-width="7" stroke-linecap="round" stroke-linejoin="round" fill="#FFD23F"/>
</svg>
