<svg xmlns="http://www.w3.org/2000/svg" viewBox="0 0 500 360" role="img">
<line x1="30" y1="320" x2="470" y2="320" stroke="#2F3542" stroke-width="7" stroke-linecap="round" stroke-linejoin="round" fill="none"/>
<path d="M80 244 L80 190 Q80 142 128 142 L236 142 L290 166 L378 166 Q420 166 420 208 L420 244 Z" stroke="#2F3542" stroke-width="7" stroke-linecap="round" stroke-linejoin="round" fill="#FFF8EC"/>
<circle cx="150" cy="278" r="42" stroke="#2F3542" stroke-width="7" stroke-linecap="round" stroke-linejoin="round" fill="#37474F"/>
<circle cx="150" cy="278" r="27" stroke="#2F3542" stroke-width="7" stroke-linecap="round" stroke-linejoin="round" fill="#FFFFFF"/>
<circle cx="150" cy="278" r="8" stroke="#2F3542" stroke-width="7" stroke-linecap="round" stroke-linejoin="round" fill="#37474F"/>
<circle cx="350" cy="278" r="42" stroke="#2F3542" stroke-width="7" stroke-linecap="round" stroke-linejoin="round" fill="#37474F"/>
<circle cx="350" cy="278" r="27" stroke="#2F3542" stroke-width="7" stroke-linecap="round" stroke-linejoin="round" fill="#FFFFFF"/>
<circle cx="350" cy="278" r="8" stroke="#2F3542" stroke-width="7" stroke-linecap="round" stroke-linejoin="round" fill="#37474F"/>
<line x1="30" y1="320" x2="470" y2="320" stroke="#2F3542" stroke-width="7" stroke-linecap="round" stroke-linejoin="round" fill="none"/>
<path d="M80 244 L80 190 Q80 142 128 142 L236 142 L290 166 L378 166 Q420 166 420 208 L420 244 Z" stroke="#2F3542" stroke-width="7" stroke-linecap="round" stroke-linejoin="round" fill="#FFF8EC"/>
<circle cx="150" cy="278" r="42" stroke="#2F3542" stroke-width="7" stroke-linecap="round" stroke-linejoin="round" fill="#37474F"/>
<circle cx="150" cy="278" r="27" stroke="#2F3542" stroke-width="7" stroke-linecap="round" stroke-linejoin="round" fill="#FFFFFF"/>
<circle cx="150" cy="278" r="8" stroke="#2F3542" stroke-width="7" stroke-linecap="round" stroke-linejoin="round" fill="#37474F"/>
<circle cx="350" cy="278" r="42" stroke="#2F3542" stroke-width="7" stroke-linecap="round" stroke-linejoin="round" fill="#37474F"/>
<circle cx="350" cy="278" r="27" stroke="#2F3542" stroke-width="7" stroke-linecap="round" stroke-linejoin="round" fill="#FFFFFF"/>
<circle cx="350" cy="278" r="8" stroke="#2F3542" stroke-width="7" stroke-linecap="round" stroke-linejoin="round" fill="#37474F"/>
<circle cx="150" cy="278" r="27" stroke="#2F3542" stroke-width="7" stroke-linecap="round" stroke-linejoin="round" fill="#FFFFFF"/>
<circle cx="350" cy="278" r="27" stroke="#2F3542" stroke-width="7" stroke-linecap="round" stroke-linejoin="round" fill="#FFFFFF"/>
<line x1="30" y1="320" x2="470" y2="320" stroke="#2F3542" stroke-width="7" stroke-linecap="round" stroke-linejoin="round" fill="none"/>
<path d="M80 244 L80 190 Q80 142 128 142 L236 142 L290 166 L378 166 Q420 166 420 208 L420 244 Z" stroke="#2F3542" stroke-width="7" stroke-linecap="round" stroke-linejoin="round" fill="#FFF8EC"/>
<circle cx="150" cy="278" r="42" stroke="#2F3542" stroke-width="7" stroke-linecap="round" stroke-linejoin="round" fill="#37474F"/>
<circle cx="150" cy="278" r="27" stroke="#2F3542" stroke-width="7" stroke-linecap="round" stroke-linejoin="round" fill="#FFFFFF"/>
<circle cx="150" cy="278" r="8" stroke="#2F3542" stroke-width="7" stroke-linecap="round" stroke-linejoin="round" fill="#37474F"/>
<circle cx="350" cy="278" r="42" stroke="#2F3542" stroke-width="7" stroke-linecap="round" stroke-linejoin="round" fill="#37474F"/>
<circle cx="350" cy="278" r="27" stroke="#2F3542" stroke-width="7" stroke-linecap="round" stroke-linejoin="round" fill="#FFFFFF"/>
<circle cx="350" cy="278" r="8" stroke="#2F3542" stroke-width="7" stroke-linecap="round" stroke-linejoin="round" fill="#37474F"/>
<circle cx="150" cy="278" r="27" stroke="#2F3542" stroke-width="7" stroke-linecap="round" stroke-linejoin="round" fill="#FFFFFF"/>
<circle cx="350" cy="278" r="27" stroke="#2F3542" stroke-width="7" stroke-linecap="round" stroke-linejoin="round" fill="#FFFFFF"/>
<line x1="150" y1="278" x2="176" y2="278" stroke="#2F3542" stroke-width="4" stroke-linecap="round" stroke-linejoin="round"/>
<line x1="150" y1="278" x2="168.38477631085024" y2="296.3847763108502" stroke="#2F3542" stroke-width="4" stroke-linecap="round" stroke-linejoin="round"/>
<line x1="150" y1="278" x2="150" y2="304" stroke="#2F3542" stroke-width="4" stroke-linecap="round" stroke-linejoin="round"/>
<line x1="150" y1="278" x2="131.61522368914976" y2="296.3847763108502" stroke="#2F3542" stroke-width="4" stroke-linecap="round" stroke-linejoin="round"/>
<line x1="350" y1="278" x2="376" y2="278" stroke="#2F3542" stroke-width="4" stroke-linecap="round" stroke-linejoin="round"/>
<line x1="350" y1="278" x2="368.3847763108502" y2="296.3847763108502" stroke="#2F3542" stroke-width="4" stroke-linecap="round" stroke-linejoin="round"/>
<line x1="350" y1="278" x2="350" y2="304" stroke="#2F3542" stroke-width="4" stroke-linecap="round" stroke-linejoin="round"/>
<line x1="350" y1="278" x2="331.6152236891498" y2="296.3847763108502" stroke="#2F3542" stroke-width="4" stroke-linecap="round" stroke-linejoin="round"/>
<line x1="30" y1="320" x2="470" y2="320" stroke="#2F3542" stroke-width="7" stroke-linecap="round" stroke-linejoin="round" fill="none"/>
<path d="M80 244 L80 190 Q80 142 128 142 L236 142 L290 166 L378 166 Q420 166 420 208 L420 244 Z" stroke="#2F3542" stroke-width="7" stroke-linecap="round" stroke-linejoin="round" fill="#FFF8EC"/>
<circle cx="150" cy="278" r="42" stroke="#2F3542" stroke-width="7" stroke-linecap="round" stroke-linejoin="round" fill="#37474F"/>
<circle cx="150" cy="278" r="27" stroke="#2F3542" stroke-width="7" stroke-linecap="round" stroke-linejoin="round" fill="#FFFFFF"/>
<circle cx="150" cy="278" r="8" stroke="#2F3542" stroke-width="7" stroke-linecap="round" stroke-linejoin="round" fill="#37474F"/>
<circle cx="350" cy="278" r="42" stroke="#2F3542" stroke-width="7" stroke-linecap="round" stroke-linejoin="round" fill="#37474F"/>
<circle cx="350" cy="278" r="27" stroke="#2F3542" stroke-width="7" stroke-linecap="round" stroke-linejoin="round" fill="#FFFFFF"/>
<circle cx="350" cy="278" r="8" stroke="#2F3542" stroke-width="7" stroke-linecap="round" stroke-linejoin="round" fill="#37474F"/>
<circle cx="150" cy="278" r="27" stroke="#2F3542" stroke-width="7" stroke-linecap="round" stroke-linejoin="round" fill="#FFFFFF"/>
<circle cx="350" cy="278" r="27" stroke="#2F3542" stroke-width="7" stroke-linecap="round" stroke-linejoin="round" fill="#FFFFFF"/>
<line x1="150" y1="278" x2="176" y2="278" stroke="#2F3542" stroke-width="4" stroke-linecap="round" stroke-linejoin="round"/>
<line x1="150" y1="278" x2="168.38477631085024" y2="296.3847763108502" stroke="#2F3542" stroke-width="4" stroke-linecap="round" stroke-linejoin="round"/>
<line x1="150" y1="278" x2="150" y2="304" stroke="#2F3542" stroke-width="4" stroke-linecap="round" stroke-linejoin="round"/>
<line x1="150" y1="278" x2="131.61522368914976" y2="296.3847763108502" stroke="#2F3542" stroke-width="4" stroke-linecap="round" stroke-linejoin="round"/>
<line x1="350" y1="278" x2="376" y2="278" stroke="#2F3542" stroke-width="4" stroke-linecap="round" stroke-linejoin="round"/>
<line x1="350" y1="278" x2="368.3847763108502" y2="296.3847763108502" stroke="#2F3542" stroke-width="4" stroke-linecap="round" stroke-linejoin="round"/>
<line x1="350" y1="278" x2="350" y2="304" stroke="#2F3542" stroke-width="4" stroke-linecap="round" stroke-linejoin="round"/>
<line x1="350" y1="278" x2="331.6152236891498" y2="296.3847763108502" stroke="#2F3542" stroke-width="4" stroke-linecap="round" stroke-linejoin="round"/>
<line x1="252" y1="246" x2="252" y2="182" stroke="#2F3542" stroke-width="5" stroke-linecap="round" stroke-linejoin="round" fill="none"/>
<line x1="30" y1="320" x2="470" y2="320" stroke="#2F3542" stroke-width="7" stroke-linecap="round" stroke-linejoin="round" fill="none"/>
<path d="M80 244 L80 190 Q80 142 128 142 L236 142 L290 166 L378 166 Q420 166 420 208 L420 244 Z" stroke="#2F3542" stroke-width="7" stroke-linecap="round" stroke-linejoin="round" fill="#FFF8EC"/>
<circle cx="150" cy="278" r="42" stroke="#2F3542" stroke-width="7" stroke-linecap="round" stroke-linejoin="round" fill="#37474F"/>
<circle cx="150" cy="278" r="27" stroke="#2F3542" stroke-width="7" stroke-linecap="round" stroke-linejoin="round" fill="#FFFFFF"/>
<circle cx="150" cy="278" r="8" stroke="#2F3542" stroke-width="7" stroke-linecap="round" stroke-linejoin="round" fill="#37474F"/>
<circle cx="350" cy="278" r="42" stroke="#2F3542" stroke-width="7" stroke-linecap="round" stroke-linejoin="round" fill="#37474F"/>
<circle cx="350" cy="278" r="27" stroke="#2F3542" stroke-width="7" stroke-linecap="round" stroke-linejoin="round" fill="#FFFFFF"/>
<circle cx="350" cy="278" r="8" stroke="#2F3542" stroke-width="7" stroke-linecap="round" stroke-linejoin="round" fill="#37474F"/>
<circle cx="150" cy="278" r="27" stroke="#2F3542" stroke-width="7" stroke-linecap="round" stroke-linejoin="round" fill="#FFFFFF"/>
<circle cx="350" cy="278" r="27" stroke="#2F3542" stroke-width="7" stroke-linecap="round" stroke-linejoin="round" fill="#FFFFFF"/>
<line x1="150" y1="278" x2="176" y2="278" stroke="#2F3542" stroke-width="4" stroke-linecap="round" stroke-linejoin="round"/>
<line x1="150" y1="278" x2="168.38477631085024" y2="296.3847763108502" stroke="#2F3542" stroke-width="4" stroke-linecap="round" stroke-linejoin="round"/>
<line x1="150" y1="278" x2="150" y2="304" stroke="#2F3542" stroke-width="4" stroke-linecap="round" stroke-linejoin="round"/>
<line x1="150" y1="278" x2="131.61522368914976" y2="296.3847763108502" stroke="#2F3542" stroke-width="4" stroke-linecap="round" stroke-linejoin="round"/>
<line x1="350" y1="278" x2="376" y2="278" stroke="#2F3542" stroke-width="4" stroke-linecap="round" stroke-linejoin="round"/>
<line x1="350" y1="278" x2="368.3847763108502" y2="296.3847763108502" stroke="#2F3542" stroke-width="4" stroke-linecap="round" stroke-linejoin="round"/>
<line x1="350" y1="278" x2="350" y2="304" stroke="#2F3542" stroke-width="4" stroke-linecap="round" stroke-linejoin="round"/>
<line x1="350" y1="278" x2="331.6152236891498" y2="296.3847763108502" stroke="#2F3542" stroke-width="4" stroke-linecap="round" stroke-linejoin="round"/>
<line x1="252" y1="246" x2="252" y2="182" stroke="#2F3542" stroke-width="5" stroke-linecap="round" stroke-linejoin="round" fill="none"/>
<path d="M262 176 Q252 168 260 158 L276 158 Q282 168 276 176 Z" stroke="#2F3542" stroke-width="7" stroke-linecap="round" stroke-linejoin="round" fill="#4A90D9"/>
<circle cx="274" cy="186" r="5" stroke="#2F3542" stroke-width="7" stroke-linecap="round" stroke-linejoin="round" fill="#37474F"/>
<text x="250" y="60" text-anchor="middle" font-size="24" font-family="'Microsoft YaHei', sans-serif" font-weight="bold" fill="#2F3542">细节让车更精致</text>
</svg>
