<svg xmlns="http://www.w3.org/2000/svg" viewBox="0 0 500 360" role="img">
<defs>
<linearGradient id="gBody" x1="0" y1="0" x2="0" y2="1"><stop offset="0%" stop-color="#FBF9F2"/><stop offset="22%" stop-color="#E8E2D4"/><stop offset="55%" stop-color="#C6BFAE"/><stop offset="82%" stop-color="#9A9283"/><stop offset="100%" stop-color="#7A7368"/></linearGradient>
<linearGradient id="gGlass" x1="0" y1="0" x2="0" y2="1"><stop offset="0%" stop-color="#55585F"/><stop offset="100%" stop-color="#7B7F88"/></linearGradient>
<radialGradient id="gTire" cx="0.5" cy="0.5" r="0.5"><stop offset="0%" stop-color="#4A4E55"/><stop offset="75%" stop-color="#2D3036"/><stop offset="100%" stop-color="#202227"/></radialGradient>
<radialGradient id="gRim" cx="0.5" cy="0.5" r="0.5"><stop offset="0%" stop-color="#F3F2EC"/><stop offset="70%" stop-color="#C6C1B4"/><stop offset="100%" stop-color="#A39C8D"/></radialGradient>
<radialGradient id="gGround" cx="0.5" cy="0.5" r="0.5"><stop offset="0%" stop-color="#8A8478" stop-opacity="0.34"/><stop offset="100%" stop-color="#8A8478" stop-opacity="0"/></radialGradient>
<radialGradient id="gMetal" cx="0.5" cy="0.36" r="0.66"><stop offset="0%" stop-color="#FDFCF8"/><stop offset="24%" stop-color="#D4CFC2"/><stop offset="48%" stop-color="#8B8478"/><stop offset="66%" stop-color="#3A3C42"/><stop offset="82%" stop-color="#B9B3A6"/><stop offset="100%" stop-color="#6E6A61"/></radialGradient>
<radialGradient id="gMatte" cx="0.5" cy="0.42" r="0.62"><stop offset="0%" stop-color="#EFEDE6"/><stop offset="55%" stop-color="#B9B4A8"/><stop offset="100%" stop-color="#7D786E"/></radialGradient>
<radialGradient id="gGlassBall" cx="0.36" cy="0.32" r="0.7"><stop offset="0%" stop-color="#FBF9F3" stop-opacity="0.2"/><stop offset="55%" stop-color="#7B7F88" stop-opacity="0.1"/><stop offset="100%" stop-color="#3A3C42" stop-opacity="0.38"/></radialGradient>
<linearGradient id="gTonePaper" x1="0" y1="0" x2="0" y2="1"><stop offset="0%" stop-color="#D6D0C2"/><stop offset="100%" stop-color="#BCB5A5"/></linearGradient>
<linearGradient id="gScreen" x1="0" y1="0" x2="0" y2="1"><stop offset="0%" stop-color="#41444C"/><stop offset="100%" stop-color="#22242A"/></linearGradient>
</defs>
<rect x="0" y="0" width="500" height="360" fill="#F1E9DB"/>
<line x1="25" y1="0" x2="25" y2="360" stroke="#B9C8DC" stroke-width="0.5" opacity="0.5"/>
<line x1="50" y1="0" x2="50" y2="360" stroke="#B9C8DC" stroke-width="0.5" opacity="0.5"/>
<line x1="75" y1="0" x2="75" y2="360" stroke="#B9C8DC" stroke-width="0.5" opacity="0.5"/>
<line x1="100" y1="0" x2="100" y2="360" stroke="#B9C8DC" stroke-width="0.5" opacity="0.5"/>
<line x1="125" y1="0" x2="125" y2="360" stroke="#B9C8DC" stroke-width="0.5" opacity="0.5"/>
<line x1="150" y1="0" x2="150" y2="360" stroke="#B9C8DC" stroke-width="0.5" opacity="0.5"/>
<line x1="175" y1="0" x2="175" y2="360" stroke="#B9C8DC" stroke-width="0.5" opacity="0.5"/>
<line x1="200" y1="0" x2="200" y2="360" stroke="#B9C8DC" stroke-width="0.5" opacity="0.5"/>
<line x1="225" y1="0" x2="225" y2="360" stroke="#B9C8DC" stroke-width="0.5" opacity="0.5"/>
<line x1="250" y1="0" x2="250" y2="360" stroke="#B9C8DC" stroke-width="0.5" opacity="0.5"/>
<line x1="275" y1="0" x2="275" y2="360" stroke="#B9C8DC" stroke-width="0.5" opacity="0.5"/>
<line x1="300" y1="0" x2="300" y2="360" stroke="#B9C8DC" stroke-width="0.5" opacity="0.5"/>
<line x1="325" y1="0" x2="325" y2="360" stroke="#B9C8DC" stroke-width="0.5" opacity="0.5"/>
<line x1="350" y1="0" x2="350" y2="360" stroke="#B9C8DC" stroke-width="0.5" opacity="0.5"/>
<line x1="375" y1="0" x2="375" y2="360" stroke="#B9C8DC" stroke-width="0.5" opacity="0.5"/>
<line x1="400" y1="0" x2="400" y2="360" stroke="#B9C8DC" stroke-width="0.5" opacity="0.5"/>
<line x1="425" y1="0" x2="425" y2="360" stroke="#B9C8DC" stroke-width="0.5" opacity="0.5"/>
<line x1="450" y1="0" x2="450" y2="360" stroke="#B9C8DC" stroke-width="0.5" opacity="0.5"/>
<line x1="475" y1="0" x2="475" y2="360" stroke="#B9C8DC" stroke-width="0.5" opacity="0.5"/>
<line x1="0" y1="25" x2="500" y2="25" stroke="#B9C8DC" stroke-width="0.5" opacity="0.5"/>
<line x1="0" y1="50" x2="500" y2="50" stroke="#B9C8DC" stroke-width="0.5" opacity="0.5"/>
<line x1="0" y1="75" x2="500" y2="75" stroke="#B9C8DC" stroke-width="0.5" opacity="0.5"/>
<line x1="0" y1="100" x2="500" y2="100" stroke="#B9C8DC" stroke-width="0.5" opacity="0.5"/>
<line x1="0" y1="125" x2="500" y2="125" stroke="#B9C8DC" stroke-width="0.5" opacity="0.5"/>
<line x1="0" y1="150" x2="500" y2="150" stroke="#B9C8DC" stroke-width="0.5" opacity="0.5"/>
<line x1="0" y1="175" x2="500" y2="175" stroke="#B9C8DC" stroke-width="0.5" opacity="0.5"/>
<line x1="0" y1="200" x2="500" y2="200" stroke="#B9C8DC" stroke-width="0.5" opacity="0.5"/>
<line x1="0" y1="225" x2="500" y2="225" stroke="#B9C8DC" stroke-width="0.5" opacity="0.5"/>
<line x1="0" y1="250" x2="500" y2="250" stroke="#B9C8DC" stroke-width="0.5" opacity="0.5"/>
<line x1="0" y1="275" x2="500" y2="275" stroke="#B9C8DC" stroke-width="0.5" opacity="0.5"/>
<line x1="0" y1="300" x2="500" y2="300" stroke="#B9C8DC" stroke-width="0.5" opacity="0.5"/>
<line x1="0" y1="325" x2="500" y2="325" stroke="#B9C8DC" stroke-width="0.5" opacity="0.5"/>
<line x1="0" y1="350" x2="500" y2="350" stroke="#B9C8DC" stroke-width="0.5" opacity="0.5"/>
<line x1="125" y1="0" x2="125" y2="360" stroke="#9FB2CC" stroke-width="0.9" opacity="0.65"/>
<line x1="250" y1="0" x2="250" y2="360" stroke="#9FB2CC" stroke-width="0.9" opacity="0.65"/>
<line x1="375" y1="0" x2="375" y2="360" stroke="#9FB2CC" stroke-width="0.9" opacity="0.65"/>
<line x1="0" y1="125" x2="500" y2="125" stroke="#9FB2CC" stroke-width="0.9" opacity="0.65"/>
<line x1="0" y1="250" x2="500" y2="250" stroke="#9FB2CC" stroke-width="0.9" opacity="0.65"/>
<line x1="24" y1="329" x2="476" y2="329" stroke="#6B8FC2" stroke-width="1.0" stroke-dasharray="10 7" opacity="0.7"/>
<line x1="60" y1="329" x2="480" y2="329" stroke="#6C707A" stroke-width="1.7" stroke-linecap="round" stroke-linejoin="round"/>
<path d="M34.0 292.3 C34.0 292.3 50.0 210.0 98.0 192.0 C136.0 182.0 200.0 174.0 252.0 171.0 C310.0 173.8 348.0 178.0 374.0 191.0 C396.0 201.0 428.0 206.0 474.0 214.0 C482.0 215.0 486.0 222.0 486.0 238.0 L486.0 274.0 C486.0 284.0 481.0 292.0 472.0 296.0 L472.0 299.5 L448.0 299.5 C448.0 278.0 432.0 258.0 412.0 258.0 C392.0 258.0 376.0 278.0 376.0 299.5 L145.0 299.5 C145.0 278.0 129.0 258.0 109.0 258.0 C89.0 258.0 73.0 278.0 73.0 299.5 L34.0 299.5 Z" stroke="#3A3C42" stroke-width="1.5" stroke-linecap="round" stroke-linejoin="round" fill="none" opacity="0.9"/>
<path d="M34.0 292.3 C34.0 292.3 50.0 210.0 98.0 192.0 C136.0 182.0 200.0 174.0 252.0 171.0 C310.0 173.8 348.0 178.0 374.0 191.0 C396.0 201.0 428.0 206.0 474.0 214.0 C482.0 215.0 486.0 222.0 486.0 238.0 L486.0 274.0 C486.0 284.0 481.0 292.0 472.0 296.0 L472.0 299.5 L448.0 299.5 C448.0 278.0 432.0 258.0 412.0 258.0 C392.0 258.0 376.0 278.0 376.0 299.5 L145.0 299.5 C145.0 278.0 129.0 258.0 109.0 258.0 C89.0 258.0 73.0 278.0 73.0 299.5 L34.0 299.5 Z" stroke="#3A3C42" stroke-width="1" stroke-linecap="round" stroke-linejoin="round" fill="none" opacity="0.45" transform="translate(1.2 0.9)"/>
<path d="M34.0 292.3 C34.0 292.3 50.0 210.0 98.0 192.0 C136.0 182.0 200.0 174.0 252.0 171.0 C310.0 173.8 348.0 178.0 374.0 191.0 C396.0 201.0 428.0 206.0 474.0 214.0 C482.0 215.0 486.0 222.0 486.0 238.0 L486.0 274.0 C486.0 284.0 481.0 292.0 472.0 296.0 L472.0 299.5 L448.0 299.5 C448.0 278.0 432.0 258.0 412.0 258.0 C392.0 258.0 376.0 278.0 376.0 299.5 L145.0 299.5 C145.0 278.0 129.0 258.0 109.0 258.0 C89.0 258.0 73.0 278.0 73.0 299.5 L34.0 299.5 Z" stroke="#3A3C42" stroke-width="0.8" stroke-linecap="round" stroke-linejoin="round" fill="none" stroke-dasharray="26 16 48 20 18 10" opacity="0.5"/>
<circle cx="412" cy="300" r="29" fill="url(#gTire)"/>
<line x1="436.0" y1="300.0" x2="440.0" y2="300.0" stroke="#8B8F98" stroke-width="1.2" opacity="0.7"/>
<line x1="432.8" y1="312.0" x2="436.2" y2="314.0" stroke="#8B8F98" stroke-width="1.2" opacity="0.7"/>
<line x1="424.0" y1="320.8" x2="426.0" y2="324.2" stroke="#8B8F98" stroke-width="1.2" opacity="0.7"/>
<line x1="412.0" y1="324.0" x2="412.0" y2="328.0" stroke="#8B8F98" stroke-width="1.2" opacity="0.7"/>
<line x1="400.0" y1="320.8" x2="398.0" y2="324.2" stroke="#8B8F98" stroke-width="1.2" opacity="0.7"/>
<line x1="391.2" y1="312.0" x2="387.8" y2="314.0" stroke="#8B8F98" stroke-width="1.2" opacity="0.7"/>
<line x1="388.0" y1="300.0" x2="384.0" y2="300.0" stroke="#8B8F98" stroke-width="1.2" opacity="0.7"/>
<line x1="391.2" y1="288.0" x2="387.8" y2="286.0" stroke="#8B8F98" stroke-width="1.2" opacity="0.7"/>
<line x1="400.0" y1="279.2" x2="398.0" y2="275.8" stroke="#8B8F98" stroke-width="1.2" opacity="0.7"/>
<line x1="412.0" y1="276.0" x2="412.0" y2="272.0" stroke="#8B8F98" stroke-width="1.2" opacity="0.7"/>
<line x1="424.0" y1="279.2" x2="426.0" y2="275.8" stroke="#8B8F98" stroke-width="1.2" opacity="0.7"/>
<line x1="432.8" y1="288.0" x2="436.2" y2="286.0" stroke="#8B8F98" stroke-width="1.2" opacity="0.7"/>
<path d="M385 289 Q412 272 439 289" stroke="#8B8F98" stroke-width="2.0" fill="none" stroke-linecap="round" opacity="0.8"/>
<circle cx="412" cy="300" r="18" fill="url(#gRim)" stroke="#4A4E56" stroke-width="1.5"/>
<circle cx="412" cy="300" r="8.5" fill="#DDD8CB"/>
<line x1="412" y1="300" x2="429.0" y2="300.0" stroke="#4A4E56" stroke-width="1.8" stroke-linecap="round"/><line x1="412" y1="300" x2="424.0" y2="312.0" stroke="#4A4E56" stroke-width="1.8" stroke-linecap="round"/><line x1="412" y1="300" x2="412.0" y2="317.0" stroke="#4A4E56" stroke-width="1.8" stroke-linecap="round"/><line x1="412" y1="300" x2="400.0" y2="312.0" stroke="#4A4E56" stroke-width="1.8" stroke-linecap="round"/><line x1="412" y1="300" x2="395.0" y2="300.0" stroke="#4A4E56" stroke-width="1.8" stroke-linecap="round"/><line x1="412" y1="300" x2="400.0" y2="288.0" stroke="#4A4E56" stroke-width="1.8" stroke-linecap="round"/><line x1="412" y1="300" x2="412.0" y2="283.0" stroke="#4A4E56" stroke-width="1.8" stroke-linecap="round"/><line x1="412" y1="300" x2="424.0" y2="288.0" stroke="#4A4E56" stroke-width="1.8" stroke-linecap="round"/>
<circle cx="412" cy="300" r="3.4" fill="#4A4E56"/>
<ellipse cx="412" cy="322" rx="26" ry="4.5" fill="#6E6A61" opacity="0.5"/>
<circle cx="109" cy="314" r="29" fill="url(#gTire)"/>
<circle cx="109" cy="314" r="18" fill="url(#gRim)" stroke="#5B5E66" stroke-width="1.2"/>
<circle cx="109" cy="314" r="11.5" fill="#DDD8CB"/>
<line x1="109" y1="314" x2="126.0" y2="314.0" stroke="#4A4E56" stroke-width="1.8" stroke-linecap="round"/><line x1="109" y1="314" x2="121.0" y2="326.0" stroke="#4A4E56" stroke-width="1.8" stroke-linecap="round"/><line x1="109" y1="314" x2="109.0" y2="331.0" stroke="#4A4E56" stroke-width="1.8" stroke-linecap="round"/><line x1="109" y1="314" x2="97.0" y2="326.0" stroke="#4A4E56" stroke-width="1.8" stroke-linecap="round"/><line x1="109" y1="314" x2="92.0" y2="314.0" stroke="#4A4E56" stroke-width="1.8" stroke-linecap="round"/><line x1="109" y1="314" x2="97.0" y2="302.0" stroke="#4A4E56" stroke-width="1.8" stroke-linecap="round"/><line x1="109" y1="314" x2="109.0" y2="297.0" stroke="#4A4E56" stroke-width="1.8" stroke-linecap="round"/><line x1="109" y1="314" x2="121.0" y2="302.0" stroke="#4A4E56" stroke-width="1.8" stroke-linecap="round"/>
<circle cx="109" cy="314" r="3.4" fill="#4A4E56"/>
<path d="M82 342 L136 286" stroke="#B3483A" stroke-width="3" stroke-linecap="round" stroke-linejoin="round" fill="none"/>
<path d="M136 342 L82 286" stroke="#B3483A" stroke-width="3" stroke-linecap="round" stroke-linejoin="round" fill="none"/>
<line x1="109" y1="282" x2="109" y2="262" stroke="#8B8478" stroke-width="1.6" stroke-linecap="round" stroke-linejoin="round"/><line x1="116.0" y1="276.0" x2="109" y2="262" stroke="#8B8478" stroke-width="1.6" stroke-linecap="round" stroke-linejoin="round"/><line x1="102.0" y1="276.0" x2="109" y2="262" stroke="#8B8478" stroke-width="1.6" stroke-linecap="round" stroke-linejoin="round"/>


</svg>
