<svg xmlns="http://www.w3.org/2000/svg" viewBox="0 0 500 360" role="img">
<defs>
<linearGradient id="gBody" x1="0" y1="0" x2="0" y2="1"><stop offset="0%" stop-color="#FBF9F3"/><stop offset="18%" stop-color="#E9E4D8"/><stop offset="55%" stop-color="#C9C2B2"/><stop offset="100%" stop-color="#9C9484"/></linearGradient>
<linearGradient id="gGlass" x1="0" y1="0" x2="0" y2="1"><stop offset="0%" stop-color="#55585F"/><stop offset="100%" stop-color="#7B7F88"/></linearGradient>
<radialGradient id="gTire" cx="0.5" cy="0.5" r="0.5"><stop offset="0%" stop-color="#4A4E55"/><stop offset="75%" stop-color="#2D3036"/><stop offset="100%" stop-color="#202227"/></radialGradient>
<radialGradient id="gRim" cx="0.5" cy="0.5" r="0.5"><stop offset="0%" stop-color="#F3F2EC"/><stop offset="70%" stop-color="#C6C1B4"/><stop offset="100%" stop-color="#A39C8D"/></radialGradient>
<radialGradient id="gGround" cx="0.5" cy="0.5" r="0.5"><stop offset="0%" stop-color="#8A8478" stop-opacity="0.34"/><stop offset="100%" stop-color="#8A8478" stop-opacity="0"/></radialGradient>
</defs>
<rect x="0" y="0" width="500" height="360" fill="#F1E9DB"/>
<ellipse cx="360" cy="292" rx="50" ry="20" stroke="#3A3C42" stroke-width="1.5" stroke-linecap="round" stroke-linejoin="round" fill="none" />
<line x1="310" y1="292" x2="410" y2="292" stroke="#8B909B" stroke-width="0.9" stroke-linecap="round" stroke-linejoin="round"/>
<line x1="360" y1="272" x2="360" y2="312" stroke="#8B909B" stroke-width="0.9" stroke-linecap="round" stroke-linejoin="round"/>
<ellipse cx="360" cy="292" rx="50" ry="20" stroke="#3A3C42" stroke-width="1.5" stroke-linecap="round" stroke-linejoin="round" fill="none" />
<line x1="310" y1="292" x2="410" y2="292" stroke="#8B909B" stroke-width="0.9" stroke-linecap="round" stroke-linejoin="round"/>
<line x1="360" y1="272" x2="360" y2="312" stroke="#8B909B" stroke-width="0.9" stroke-linecap="round" stroke-linejoin="round"/>
<ellipse cx="150" cy="296" rx="42" ry="17" stroke="#3A3C42" stroke-width="1.5" stroke-linecap="round" stroke-linejoin="round" fill="none" />
<line x1="108" y1="296" x2="192" y2="296" stroke="#8B909B" stroke-width="0.9" stroke-linecap="round" stroke-linejoin="round"/>
<line x1="150" y1="279" x2="150" y2="313" stroke="#8B909B" stroke-width="0.9" stroke-linecap="round" stroke-linejoin="round"/>
<line x1="40" y1="318" x2="460" y2="318" stroke="#6C707A" stroke-width="1.3" stroke-linecap="round" stroke-linejoin="round"/>
</svg>
